<svg xmlns="http://www.w3.org/2000/svg" xmlns:xlink="http://www.w3.org/1999/xlink" width="500" zoomAndPan="magnify" viewBox="0 0 375 374.999991" height="500" preserveAspectRatio="xMidYMid meet" version="1.0"><defs><clipPath id="d945b9c356"><path d="M 19 120 L 356 120 L 356 356.25 L 19 356.25 Z M 19 120 " clip-rule="nonzero"/></clipPath><clipPath id="7f70d48a81"><path d="M 115 170 L 260 170 L 260 356.25 L 115 356.25 Z M 115 170 " clip-rule="nonzero"/></clipPath><clipPath id="4f894a5620"><path d="M 70 18.75 L 305 18.75 L 305 171 L 70 171 Z M 70 18.75 " clip-rule="nonzero"/></clipPath></defs><g clip-path="url(#d945b9c356)"><path fill="#c2844b" d="M 187.503906 156.105469 C 159.863281 156.652344 141.648438 164.847656 126.230469 174.074219 C 103.820312 144.160156 72.136719 124.609375 30.914062 120.84375 C 18.878906 119.746094 18.371094 125.671875 19.773438 134.460938 C 27.820312 184.914062 64.859375 209.398438 115.707031 211.828125 C 121.277344 241.949219 116.226562 276.191406 132.417969 302.191406 C 145.675781 323.480469 157.507812 357.019531 187.503906 356.230469 C 217.5 357.019531 229.332031 323.480469 242.589844 302.191406 C 258.78125 276.191406 253.730469 241.949219 259.300781 211.828125 C 310.148438 209.402344 347.191406 184.914062 355.234375 134.460938 C 356.636719 125.671875 356.128906 119.746094 344.09375 120.84375 C 302.871094 124.609375 271.1875 144.160156 248.777344 174.074219 C 233.359375 164.847656 215.144531 156.648438 187.503906 156.105469 " fill-opacity="1" fill-rule="evenodd"/></g><g clip-path="url(#7f70d48a81)"><path fill="#f7ddba" d="M 132.882812 170.28125 C 130.597656 171.511719 128.386719 172.78125 126.230469 174.074219 L 126.089844 173.890625 C 123.980469 178.148438 121.609375 182.933594 120.210938 187.8125 C 118.078125 195.25 116.664062 203.414062 115.523438 211.820312 L 115.707031 211.828125 C 116.171875 214.324219 116.558594 216.851562 116.890625 219.398438 C 125.242188 218.234375 136.839844 219.003906 139.722656 223.804688 C 148.570312 238.53125 152.765625 262.664062 156.550781 288.589844 C 157.570312 295.574219 155.121094 299.808594 152.792969 298.488281 C 149.871094 303.707031 148.035156 313.996094 146.867188 327.390625 C 156.359375 342.953125 168.152344 356.730469 187.507812 356.222656 C 206.863281 356.730469 218.660156 342.949219 228.152344 327.390625 C 226.980469 313.996094 225.144531 303.707031 222.222656 298.488281 C 219.894531 299.808594 217.445312 295.574219 218.464844 288.589844 C 222.25 262.664062 226.449219 238.53125 235.292969 223.804688 C 238.175781 219.003906 249.769531 218.234375 258.121094 219.398438 C 258.453125 216.851562 258.84375 214.324219 259.304688 211.828125 L 259.492188 211.820312 C 258.347656 203.414062 256.9375 195.25 254.804688 187.8125 C 253.402344 182.933594 251.03125 178.148438 248.921875 173.890625 L 248.785156 174.074219 C 246.625 172.78125 244.414062 171.511719 242.132812 170.28125 C 241.832031 181.632812 239.589844 192.238281 231.351562 200.695312 C 222.371094 209.90625 212.65625 213.953125 211.5625 232.445312 C 210.457031 251.125 210.949219 265.269531 210.640625 287.207031 C 203.238281 281.78125 195.523438 279.484375 187.511719 280.144531 C 179.5 279.484375 171.785156 281.78125 164.382812 287.207031 C 164.074219 265.269531 164.570312 251.125 163.460938 232.445312 C 162.363281 213.949219 152.652344 209.90625 143.675781 200.695312 C 135.421875 192.238281 133.179688 181.628906 132.882812 170.28125 " fill-opacity="1" fill-rule="evenodd"/></g><path fill="#6b4c3a" d="M 271.5625 189.511719 C 277.496094 182.222656 283.617188 174.703125 286.5625 161.578125 C 289.304688 149.359375 302.859375 144.007812 325.21875 138.574219 C 338.382812 135.378906 338.613281 133.359375 334.175781 147.378906 C 324.441406 178.121094 304.042969 193.851562 276.53125 199.320312 C 259.859375 202.632812 261.695312 201.628906 271.5625 189.511719 M 103.441406 189.511719 C 97.507812 182.222656 91.386719 174.703125 88.441406 161.578125 C 85.699219 149.359375 72.144531 144.007812 49.785156 138.574219 C 36.621094 135.378906 36.390625 133.359375 40.832031 147.378906 C 50.566406 178.121094 70.964844 193.851562 98.476562 199.320312 C 115.148438 202.632812 113.3125 201.628906 103.441406 189.511719 Z M 103.441406 189.511719 " fill-opacity="1" fill-rule="evenodd"/><path fill="#4a433b" d="M 267 222.839844 C 268.472656 227.445312 260.957031 229.796875 255.273438 229.683594 C 255.308594 245.242188 247.074219 251.773438 236.867188 243.953125 C 229.75 259.816406 230.941406 278.609375 224.175781 295.738281 C 221.664062 302.097656 217.132812 297.660156 218.457031 288.589844 C 222.246094 262.660156 226.441406 238.53125 235.285156 223.800781 C 239.800781 216.289062 265.660156 218.644531 267 222.839844 M 187.503906 313.347656 C 185.09375 314.03125 182.839844 312.398438 180.375 311 C 175.859375 308.445312 172.976562 306.289062 168.636719 303.734375 C 162.519531 300.140625 163.210938 312.484375 166.964844 314.910156 C 171.691406 317.972656 175.566406 320.085938 179.578125 322.09375 C 183.648438 324.128906 183.1875 322.984375 183.085938 327.488281 C 183.019531 330.375 182.953125 333.261719 182.890625 336.148438 C 174.183594 340.480469 167.582031 336.160156 160.820312 332.234375 C 159.945312 331.726562 158.5 333.976562 159.140625 334.75 C 167.523438 344.851562 177.453125 346.359375 187.507812 345.863281 C 197.558594 346.355469 207.488281 344.851562 215.871094 334.75 C 216.515625 333.976562 215.066406 331.726562 214.195312 332.234375 C 207.429688 336.160156 200.828125 340.480469 192.121094 336.148438 C 192.054688 333.261719 191.988281 330.375 191.925781 327.488281 C 191.824219 322.980469 191.363281 324.128906 195.433594 322.09375 C 199.445312 320.089844 203.320312 317.972656 208.046875 314.910156 C 211.796875 312.480469 212.492188 300.136719 206.375 303.734375 C 202.035156 306.289062 199.15625 308.445312 194.636719 311 C 192.167969 312.398438 189.914062 314.03125 187.503906 313.347656 Z M 108.007812 222.839844 C 106.539062 227.445312 114.050781 229.796875 119.734375 229.683594 C 119.699219 245.242188 127.933594 251.773438 138.144531 243.953125 C 145.257812 259.816406 144.066406 278.609375 150.832031 295.738281 C 153.34375 302.097656 157.875 297.660156 156.550781 288.589844 C 152.761719 262.660156 148.566406 238.53125 139.71875 223.800781 C 135.207031 216.289062 109.347656 218.644531 108.007812 222.839844 Z M 108.007812 222.839844 " fill-opacity="1" fill-rule="evenodd"/><g clip-path="url(#4f894a5620)"><path fill="#6a5949" d="M 132.640625 170.027344 C 145.300781 171.648438 157.335938 169.5 168.050781 159.4375 C 164.582031 119.734375 132.773438 100.34375 102.339844 80.582031 C 86.773438 70.476562 82.554688 62.359375 90.011719 29.410156 C 93.226562 15.210938 93.09375 15.578125 83.664062 28.246094 C 61.089844 58.574219 69.796875 91.570312 93.214844 106.503906 C 119.46875 123.25 128.625 142.648438 132.640625 170.027344 M 242.367188 170.027344 C 229.703125 171.648438 217.667969 169.5 206.953125 159.4375 C 210.421875 119.734375 242.230469 100.34375 272.664062 80.582031 C 288.234375 70.476562 292.453125 62.359375 284.992188 29.410156 C 281.78125 15.210938 281.910156 15.578125 291.339844 28.246094 C 313.914062 58.574219 305.207031 91.570312 281.789062 106.503906 C 255.539062 123.25 246.382812 142.648438 242.367188 170.027344 Z M 242.367188 170.027344 " fill-opacity="1" fill-rule="evenodd"/></g><path fill="#4f3d31" d="M 87.464844 63.277344 C 87.046875 61.710938 86.757812 60.011719 86.589844 58.15625 C 81.390625 59.53125 76.066406 60.726562 70.632812 61.753906 C 70.507812 63.773438 70.5 65.773438 70.605469 67.738281 C 76.0625 66.90625 81.636719 65.613281 87.464844 63.277344 M 99.660156 78.777344 C 97.625 77.351562 95.820312 75.925781 94.25 74.433594 C 87.527344 77.539062 80.535156 79.835938 73.367188 81.601562 C 74.507812 84.824219 75.980469 87.898438 77.746094 90.777344 C 85.445312 87.703125 92.871094 83.980469 99.660156 78.777344 Z M 116.917969 90.117188 C 113.867188 88.074219 110.785156 86.0625 107.695312 84.058594 C 101.402344 90.855469 93.828125 96.117188 85.316406 100.257812 C 87.707031 102.582031 90.347656 104.679688 93.210938 106.507812 C 93.695312 106.816406 94.167969 107.125 94.636719 107.433594 C 102.742188 102.5625 110.113281 96.71875 116.917969 90.117188 Z M 138.5 106.199219 C 136.003906 104.042969 133.410156 101.957031 130.75 99.925781 C 122.011719 104.953125 112.863281 109.566406 103.15625 113.621094 C 105.457031 115.480469 107.585938 117.378906 109.558594 119.324219 C 118.371094 117.484375 128.449219 111.269531 138.5 106.199219 Z M 159.207031 130.558594 C 156.953125 126.574219 154.351562 122.851562 151.464844 119.332031 C 141.835938 125.761719 130.878906 129.203125 119.136719 130.875 C 120.882812 133.5 122.429688 136.207031 123.800781 139.011719 C 136.21875 138.96875 147.859375 135.421875 159.207031 130.558594 Z M 287.539062 63.277344 C 287.960938 61.710938 288.25 60.011719 288.414062 58.15625 C 293.617188 59.53125 298.941406 60.726562 304.375 61.753906 C 304.496094 63.773438 304.503906 65.773438 304.398438 67.738281 C 298.945312 66.90625 293.375 65.613281 287.539062 63.277344 Z M 275.347656 78.777344 C 277.382812 77.351562 279.1875 75.925781 280.757812 74.433594 C 287.476562 77.539062 294.472656 79.835938 301.640625 81.601562 C 300.5 84.824219 299.03125 87.898438 297.265625 90.777344 C 289.5625 87.703125 282.136719 83.980469 275.347656 78.777344 Z M 258.085938 90.117188 C 261.136719 88.074219 264.222656 86.0625 267.308594 84.058594 C 273.605469 90.855469 281.179688 96.117188 289.691406 100.257812 C 287.296875 102.582031 284.65625 104.679688 281.796875 106.507812 C 281.3125 106.816406 280.835938 107.125 280.367188 107.433594 C 272.265625 102.5625 264.890625 96.71875 258.085938 90.117188 Z M 236.507812 106.199219 C 239.003906 104.042969 241.597656 101.957031 244.261719 99.925781 C 252.996094 104.953125 262.144531 109.566406 271.851562 113.621094 C 269.550781 115.480469 267.421875 117.378906 265.449219 119.324219 C 256.632812 117.484375 246.558594 111.269531 236.507812 106.199219 Z M 215.800781 130.558594 C 218.054688 126.574219 220.65625 122.851562 223.542969 119.332031 C 233.171875 125.761719 244.128906 129.203125 255.871094 130.875 C 254.125 133.5 252.578125 136.207031 251.207031 139.011719 C 238.789062 138.96875 227.148438 135.421875 215.800781 130.558594 Z M 207.589844 154.25 C 207.976562 151.757812 208.480469 149.347656 209.097656 147.019531 C 221.449219 151.433594 233.480469 154.667969 245.269531 155.355469 C 244.582031 157.992188 243.984375 160.707031 243.453125 163.511719 C 232.078125 163.621094 220.078125 160.226562 207.589844 154.25 Z M 167.421875 154.25 C 167.03125 151.757812 166.527344 149.347656 165.910156 147.019531 C 153.558594 151.433594 141.527344 154.667969 129.742188 155.355469 C 130.425781 157.992188 131.023438 160.707031 131.554688 163.511719 C 142.925781 163.621094 154.929688 160.226562 167.421875 154.25 Z M 167.421875 154.25 " fill-opacity="1" fill-rule="evenodd"/></svg>