<?xml version="1.0" encoding="UTF-8"?>
<svg id="hyrax" xmlns="http://www.w3.org/2000/svg" viewBox="0 0 1080 1400">
  <defs>
    <style>
      .cls-1 {
        fill: #c9966a;
      }

      .cls-2 {
        fill: #412517;
      }

      .cls-3 {
        fill: #fff;
      }

      .cls-4 {
        fill: #986b45;
      }

      .cls-5 {
        fill: #795637;
      }

      .cls-6 {
        fill: #976c45;
      }
    </style>
  </defs>
  <path class="cls-6" d="M283.62,604.98s-75.67-14.01-49.04-80.57c0,0,3.25-9.1,10.12-18.93,14.52-20.78,42.26-27.49,64.97-16.21,13.34,6.63,29.48,18.02,34.9,35.84"/>
  <path class="cls-5" d="M293.64,587.29s-31.93-9.45-37.24-35.36c-2.39-11.66,1.64-23.72,10.13-32.07,7.13-7.01,18.3-12.33,33.49-3.17.99.6,2.01,1.14,3.03,1.69,5.46,2.92,21.56,12.56,24.32,26.03"/>
  <path class="cls-6" d="M795.2,598.25s75.67-14.01,49.04-80.57c0,0-3.25-9.1-10.12-18.93-14.52-20.78-42.26-27.49-64.97-16.21-13.34,6.63-29.48,18.02-34.9,35.84"/>
  <path class="cls-5" d="M785.18,580.56s31.93-9.45,37.24-35.36c2.39-11.66-1.64-23.72-10.13-32.07-7.13-7.01-18.3-12.33-33.49-3.17-.99.6-2.01,1.14-3.03,1.69-5.46,2.92-21.56,12.56-24.32,26.03"/>
  <path class="cls-4" d="M718.93,477.22c9.69-3.51-23.13.45-29.91,1.29-.64.08-1.22-.42-1.22-1.07.07-12.04,7.58-18.5,10.75-20.68.43-.29.23-.95-.29-.99-19.37-1.24-27.15,6.55-29.63,10.04-.15.2-.46.05-.39-.19,2.66-8.91,1.57-17.23.6-21.66-.26-1.17-1.82-1.38-2.4-.34-6.1,10.94-15.65,15.43-22,17.26-3.5,1.01-7.21,1.03-10.75.15-43.35-10.81-76.57-9.96-76.57-9.96h-34.24s-68.59-1.75-137.26,31.84c-48.06,23.51-84.93,65.01-103.69,115.12l-21.6,57.71s-60.66,72.2-72.24,162.15c-.06.43.51.66.76.31,2.45-3.42,9.09-11.99,14.77-13.16.75-.15,1.42.48,1.3,1.23-1.66,10.66-11.22,81.39,20.52,122.9,34.4,44.98,74.92,110.98,297.42,110.98h34.24c222.51,0,263.03-66,297.42-110.98,31.74-41.51,22.18-112.23,20.52-122.9-.12-.75.56-1.39,1.3-1.23,5.68,1.18,12.31,9.75,14.77,13.16.25.35.82.13.76-.31-11.58-89.95-72.24-162.15-72.24-162.15l-21.6-57.71c-16.07-42.94-45.44-79.55-83.75-103.95-1.22-.77-1.93-2.13-1.84-3.57.24-3.91,1.38-11.45,6.46-13.29Z"/>
  <ellipse cx="373.8" cy="723.71" rx="34.74" ry="41.52"/>
  <circle class="cls-3" cx="373.8" cy="700.93" r="9.99"/>
  <ellipse cx="706.2" cy="723.71" rx="34.74" ry="41.52"/>
  <path class="cls-1" d="M787.26,914.96c-15.61-47.88-71.84-78.18-94.84-90.58-33.03-17.8-55.24-20.74-70.87-46.36-10.64-17.43-9.15-28.36-20.78-43.69-15.43-20.34-30.03-25.69-61.27-25.69s-45.84,5.35-61.27,25.69c-11.63,15.33-10.14,26.26-20.78,43.69-15.63,25.61-37.84,28.56-70.87,46.36-23.01,12.4-79.23,42.7-94.84,90.58-3.54,10.87-10.87,40.69,9.8,85.46,42.16,22.68,108.24,39.73,221.33,39.73h34.24c111.91,0,177.78-16.7,220-39.02,21.08-45.16,13.71-75.24,10.14-86.17Z"/>
  <circle class="cls-3" cx="706.2" cy="700.93" r="9.99"/>
  <path class="cls-3" d="M576.28,898.95v20.15c0,8.44-6.84,15.28-15.28,15.28h-6.21c-8.44,0-15.28-6.84-15.28-15.28v-40.79c-1.79,9.33-36.78,20.64-36.78,20.64v20.15c0,8.44,6.84,15.28,15.28,15.28h6.21c8.44,0,15.28-6.84,15.28-15.28v-40.79s23.02,25.84,36.78,20.64Z"/>
  <path class="cls-2" d="M550.92,839.87c17.18-2.83,46.83-11.75,46.83-39.71,4.72-43.03-34.25-32.31-55.03-32.85-2.59-.07-5.17-.07-7.76-.03-21.22.38-58.26-9.51-53.74,32.88,0,27.85,28.91,36.81,45.83,39.67,7.9,1.34,15.96,1.33,23.87.03Z"/>
  <path class="cls-2" d="M624.43,871.32c-5.7,20.68-24.68,35.13-46.15,35.13-15.58,0-29.93-7.68-38.78-19.83-8.84,12.15-23.19,19.83-38.77,19.83-21.47,0-40.45-14.45-46.15-35.13-1.11-3.99,1.24-8.12,5.23-9.22,4-1.1,8.13,1.24,9.23,5.24,3.91,14.19,16.94,24.11,31.69,24.11s26.91-9.29,31.27-22.71v-27.9c0-4.14,3.36-7.5,7.5-7.5s7.5,3.36,7.5,7.5v27.84c4.33,13.45,17.06,22.77,31.28,22.77s27.78-9.92,31.69-24.11c1.1-4,5.23-6.34,9.23-5.24,3.99,1.1,6.34,5.23,5.23,9.22Z"/>
</svg>