<svg width="512" height="512" viewBox="0 0 512 512" fill="none" xmlns="http://www.w3.org/2000/svg">
<g clip-path="url(#clip0_34_464)">
<mask id="mask0_34_464" style="mask-type:luminance" maskUnits="userSpaceOnUse" x="20" y="20" width="472" height="472">
<path d="M456.336 20H55.6643C35.9675 20 20 35.9675 20 55.6643V456.336C20 476.033 35.9675 492 55.6643 492H456.336C476.033 492 492 476.033 492 456.336V55.6643C492 35.9675 476.033 20 456.336 20Z" fill="white"/>
</mask>
<g mask="url(#mask0_34_464)">
<path d="M258.313 519.583C206.176 518.606 171.942 529.165 57.5382 472.341C50.7886 468.99 44.1995 465.318 37.6906 461.504C29.44 456.68 5.14618 445.305 -50.7292 437.3C-51.7581 437.149 -52.5464 436.294 -52.5794 435.261C-52.7541 429.899 -51.7109 413.841 -34.3083 405.175C-33.454 404.751 -33.6286 403.467 -34.5726 403.287C-45.4428 401.149 -81.2204 392.46 -95.791 368.836C-97.4241 366.193 -97.8725 362.974 -97.0182 359.981C-95.2341 353.713 -88.7205 342.673 -67.2256 326.658C-66.2061 325.903 -66.1966 324.388 -67.1925 323.609C-72.5214 319.422 -86.2613 305.631 -88.2673 273.398C-88.324 272.444 -87.5027 271.675 -86.5587 271.783L-67.7401 273.974C-67.5229 273.997 -67.3908 273.742 -67.5513 273.582C-71.1998 270.032 -94.375 247.037 -98.4484 231.885C-98.6041 231.295 -98.0661 230.776 -97.4713 230.922C-93.1337 232.008 -78.1288 232.008 -54.1795 192.79C-54.1795 192.79 -15.9145 93.089 89.2708 32.7721C89.2708 32.7721 144.15 -5.33716 253.47 -5.33716H252.493C361.813 -5.33716 422.725 32.7721 422.725 32.7721C527.905 93.089 566.175 192.79 566.175 192.79C590.124 232.017 605.129 232.017 609.467 230.922C610.057 230.771 610.604 231.295 610.444 231.885C606.375 247.041 583.195 270.028 579.547 273.582C579.391 273.733 579.523 273.997 579.735 273.974L598.554 271.783C599.498 271.675 600.329 272.449 600.263 273.398C598.247 305.631 584.522 319.422 579.188 323.609C578.192 324.388 578.201 325.908 579.221 326.658C600.716 342.683 607.234 353.723 609.014 359.981C609.859 362.964 609.42 366.188 607.786 368.836C593.211 392.469 557.433 401.149 546.568 403.287C545.633 403.471 545.449 404.746 546.304 405.175C563.706 413.846 564.74 429.894 564.575 435.261C564.542 436.299 563.754 437.149 562.725 437.3C506.849 445.31 482.546 456.68 474.305 461.504C467.796 465.308 461.207 468.98 454.457 472.341C340.059 529.16 308.93 520.537 258.327 519.583H258.308H258.313Z" fill="#E27A54"/>
<path d="M441.708 254.14C440.698 254.14 439.683 254.159 438.692 254.183C394.343 255.353 370.639 279.293 348.894 317.964C331.02 349.739 293.467 403.358 256 403.358C218.533 403.358 180.976 349.739 163.106 317.964C141.351 279.293 117.661 255.348 73.3076 254.183C72.3023 254.159 71.3016 254.14 70.2915 254.14C-4.24199 253.942 -64.8751 322.986 -66.815 326.248C-66.9236 326.399 -67.0463 326.531 -67.2068 326.644C-88.7017 342.668 -95.22 353.708 -96.9994 359.967C-97.8443 362.95 -97.4053 366.174 -95.7722 368.822C-81.1969 392.455 -45.4193 401.135 -34.5538 403.273C-33.6193 403.457 -33.4352 404.732 -34.2895 405.161C-51.6921 413.832 -52.7258 429.88 -52.5606 435.246C-52.5276 436.285 -51.7393 437.134 -50.7104 437.286C5.16497 445.295 29.4683 456.666 37.7094 461.49C44.2183 465.294 50.8074 468.966 57.557 472.327C171.956 529.146 206.185 518.592 258.332 519.569C308.935 520.523 340.063 529.146 454.462 472.327C461.211 468.976 467.8 465.303 474.309 461.49C482.56 456.666 506.854 445.291 562.729 437.286C563.758 437.134 564.546 436.28 564.579 435.246C564.754 429.885 563.711 413.827 546.308 405.161C545.454 404.736 545.629 403.453 546.573 403.273C557.443 401.135 593.22 392.446 607.791 368.822C609.424 366.179 609.872 362.96 609.018 359.967C607.234 353.699 600.72 342.659 579.226 326.644C579.07 326.526 578.942 326.389 578.834 326.248C576.894 322.991 516.251 253.937 441.727 254.14H441.708Z" fill="#EFE7DA"/>
<path d="M279.817 456.571C270.457 456.571 261.777 452.286 255.991 445.39C250.204 452.295 241.524 456.571 232.164 456.571C218.245 456.571 205.944 447.212 202.253 433.807C201.342 430.498 203.282 427.076 206.596 426.165C209.904 425.254 213.326 427.194 214.237 430.508C216.451 438.532 223.819 444.144 232.159 444.144C240.499 444.144 247.721 438.64 250.015 430.758L255.986 410.216L261.957 430.758C264.246 438.64 271.59 444.144 279.812 444.144C288.035 444.144 295.521 438.541 297.734 430.508C298.645 427.199 302.072 425.259 305.376 426.165C308.685 427.076 310.634 430.503 309.718 433.807C306.023 447.212 293.717 456.571 279.808 456.571H279.817Z" fill="black"/>
<path d="M288.139 410.424L273.757 424.806C263.967 434.595 248.089 434.595 238.3 424.806L223.857 410.363C219.727 406.233 220.779 399.261 225.971 396.595C233.665 392.639 244.847 388.165 256.028 388.212C267.135 388.254 278.245 392.686 285.93 396.599C291.169 399.271 292.306 406.256 288.143 410.419H288.134L288.139 410.424Z" fill="black" stroke="black" stroke-miterlimit="10" stroke-linecap="round"/>
<path d="M113.225 314.061C129.129 314.061 142.021 298.651 142.021 279.642C142.021 260.634 129.129 245.224 113.225 245.224C97.3207 245.224 84.428 260.634 84.428 279.642C84.428 298.651 97.3207 314.061 113.225 314.061Z" fill="black"/>
<path d="M113.225 269.041C117.8 269.041 121.508 265.333 121.508 260.758C121.508 256.183 117.8 252.474 113.225 252.474C108.65 252.474 104.941 256.183 104.941 260.758C104.941 265.333 108.65 269.041 113.225 269.041Z" fill="white"/>
<path d="M398.761 314.061C414.665 314.061 427.558 298.651 427.558 279.642C427.558 260.634 414.665 245.224 398.761 245.224C382.857 245.224 369.964 260.634 369.964 279.642C369.964 298.651 382.857 314.061 398.761 314.061Z" fill="black"/>
<path d="M398.761 269.041C403.336 269.041 407.045 265.333 407.045 260.758C407.045 256.183 403.336 252.474 398.761 252.474C394.186 252.474 390.478 256.183 390.478 260.758C390.478 265.333 394.186 269.041 398.761 269.041Z" fill="white"/>
<path d="M62.5886 668.863C95.1265 668.863 121.504 613.526 121.504 545.265C121.504 477.004 95.1265 421.667 62.5886 421.667C30.0508 421.667 3.67358 477.004 3.67358 545.265C3.67358 613.526 30.0508 668.863 62.5886 668.863Z" fill="#EFE7DA"/>
<path d="M462.722 564.815C498.046 564.815 526.683 534.022 526.683 496.035C526.683 458.049 498.046 427.256 462.722 427.256C427.397 427.256 398.761 458.049 398.761 496.035C398.761 534.022 427.397 564.815 462.722 564.815Z" fill="#EFE7DA"/>
<path d="M95.435 163.998C152.737 163.998 199.19 123.356 199.19 73.2226C199.19 23.0889 152.737 -17.5525 95.435 -17.5525C38.1326 -17.5525 -8.32007 23.0889 -8.32007 73.2226C-8.32007 123.356 38.1326 163.998 95.435 163.998Z" fill="#E27A54"/>
<path d="M464.19 177.969C512.59 177.969 551.826 134.356 551.826 80.5576C551.826 26.7588 512.59 -16.8538 464.19 -16.8538C415.79 -16.8538 376.553 26.7588 376.553 80.5576C376.553 134.356 415.79 177.969 464.19 177.969Z" fill="#E27A54"/>
</g>
</g>
<defs>
<clipPath id="clip0_34_464">
<rect width="472" height="472" fill="white" transform="translate(20 20)"/>
</clipPath>
</defs>
</svg>
