<svg xmlns="http://www.w3.org/2000/svg" xmlns:xlink="http://www.w3.org/1999/xlink" width="1080" zoomAndPan="magnify" viewBox="0 0 810 809.999993" height="1080" preserveAspectRatio="xMidYMid meet" version="1.0"><rect x="-81" width="972" fill="#ffffff" y="-80.999999" height="971.999992" fill-opacity="1"/><rect x="-81" width="972" fill="#f5fbff" y="-80.999999" height="971.999992" fill-opacity="1"/><path fill="#cce9fa" d="M 81 83.863281 L 121.5 124.363281 L 124.363281 121.5 L 40.5 37.636719 L 0 78.136719 L 0 83.863281 L 40.5 124.363281 Z M 40.5 43.363281 L 78.136719 81 L 40.5 118.636719 L 2.863281 81 Z M 2.863281 324 L 0 326.863281 L 0 321.136719 Z M 81 124.363281 L 118.636719 162 L 78.136719 202.5 L 81 205.363281 L 162 124.363281 L 243 205.363281 L 245.863281 202.5 L 205.363281 162 L 283.5 83.863281 L 324 124.363281 L 326.863281 121.5 L 243 37.636719 L 202.5 78.136719 L 164.863281 40.5 L 205.363281 0 L 199.636719 0 L 162 37.636719 L 124.363281 0 L 118.636719 0 L 159.136719 40.5 L 121.5 78.136719 L 43.363281 0 L 37.636719 0 L 0 37.636719 L 0 43.363281 L 40.5 2.863281 L 159.136719 121.5 L 121.5 159.136719 L 81 118.636719 L 40.5 159.136719 L 0 118.636719 L 0 124.363281 L 40.5 164.863281 Z M 124.363281 81 L 162 43.363281 L 202.5 83.863281 L 243 43.363281 L 280.636719 81 L 202.5 159.136719 Z M 2.863281 405 L 0 407.863281 L 0 402.136719 Z M 324 43.363281 L 280.636719 0 L 286.363281 0 L 324 37.636719 L 361.636719 0 L 367.363281 0 Z M 324 2.863281 L 321.136719 0 L 326.863281 0 Z M 405 37.636719 L 402.136719 40.5 L 405 43.363281 L 445.5 2.863281 L 564.136719 121.5 L 526.5 159.136719 L 486 118.636719 L 445.5 159.136719 L 364.5 78.136719 L 361.636719 81 L 445.5 164.863281 L 486 124.363281 L 523.636719 162 L 483.136719 202.5 L 486 205.363281 L 567 124.363281 L 648 205.363281 L 650.863281 202.5 L 610.363281 162 L 688.5 83.863281 L 729 124.363281 L 731.863281 121.5 L 648 37.636719 L 607.5 78.136719 L 569.863281 40.5 L 610.363281 0 L 604.636719 0 L 567 37.636719 L 529.363281 0 L 523.636719 0 L 564.136719 40.5 L 526.5 78.136719 L 448.363281 0 L 442.636719 0 Z M 567 43.363281 L 607.5 83.863281 L 648 43.363281 L 685.636719 81 L 607.5 159.136719 L 529.363281 81 Z M 162 2.863281 L 159.136719 0 L 164.863281 0 Z M 2.863281 0 L 0 2.863281 L 0 0 Z M 121.5 43.363281 L 78.136719 0 L 83.863281 0 L 124.363281 40.5 Z M 202.5 124.363281 L 159.136719 81 L 162 78.136719 L 202.5 118.636719 L 243 78.136719 L 245.863281 81 Z M 324 240.136719 L 367.363281 283.5 L 286.363281 364.5 L 326.863281 405 L 324 407.863281 L 280.636719 364.5 L 321.136719 324 L 283.5 286.363281 L 243 326.863281 L 240.136719 324 L 283.5 280.636719 L 324 321.136719 L 361.636719 283.5 L 321.136719 243 Z M 729 240.136719 L 772.363281 283.5 L 691.363281 364.5 L 731.863281 405 L 729 407.863281 L 685.636719 364.5 L 726.136719 324 L 688.5 286.363281 L 648 326.863281 L 645.136719 324 L 688.5 280.636719 L 729 321.136719 L 766.636719 283.5 L 726.136719 243 Z M 807.136719 364.5 L 810 361.636719 L 810 367.363281 Z M 772.363281 162 L 769.5 159.136719 L 648 280.636719 L 567 199.636719 L 564.136719 202.5 L 645.136719 283.5 L 607.5 321.136719 L 526.5 240.136719 L 523.636719 243 L 564.136719 283.5 L 526.5 321.136719 L 445.5 240.136719 L 442.636719 243 L 523.636719 324 L 445.5 402.136719 L 407.863281 364.5 L 448.363281 324 L 326.863281 202.5 L 367.363281 162 L 364.5 159.136719 L 243 280.636719 L 162 199.636719 L 159.136719 202.5 L 240.136719 283.5 L 202.5 321.136719 L 121.5 240.136719 L 118.636719 243 L 159.136719 283.5 L 121.5 321.136719 L 40.5 240.136719 L 37.636719 243 L 118.636719 324 L 40.5 402.136719 L 2.863281 364.5 L 43.363281 324 L 0 280.636719 L 0 286.363281 L 37.636719 324 L 0 361.636719 L 0 367.363281 L 37.636719 405 L 0 442.636719 L 0 448.363281 L 40.5 407.863281 L 159.136719 526.5 L 121.5 564.136719 L 81 523.636719 L 40.5 564.136719 L 0 523.636719 L 0 529.363281 L 40.5 569.863281 L 81 529.363281 L 118.636719 567 L 78.136719 607.5 L 81 610.363281 L 162 529.363281 L 243 610.363281 L 245.863281 607.5 L 205.363281 567 L 283.5 488.863281 L 324 529.363281 L 326.863281 526.5 L 243 442.636719 L 202.5 483.136719 L 164.863281 445.5 L 205.363281 405 L 202.5 402.136719 L 162 442.636719 L 124.363281 405 L 164.863281 364.5 L 162 361.636719 L 118.636719 405 L 159.136719 445.5 L 121.5 483.136719 L 43.363281 405 L 162 286.363281 L 324 448.363281 L 367.363281 405 L 326.863281 364.5 L 405 286.363281 L 442.636719 324 L 402.136719 364.5 L 442.636719 405 L 402.136719 445.5 L 405 448.363281 L 445.5 407.863281 L 564.136719 526.5 L 526.5 564.136719 L 486 523.636719 L 445.5 564.136719 L 364.5 483.136719 L 361.636719 486 L 445.5 569.863281 L 486 529.363281 L 523.636719 567 L 483.136719 607.5 L 486 610.363281 L 567 529.363281 L 648 610.363281 L 650.863281 607.5 L 610.363281 567 L 688.5 488.863281 L 729 529.363281 L 731.863281 526.5 L 648 442.636719 L 607.5 483.136719 L 569.863281 445.5 L 610.363281 405 L 607.5 402.136719 L 567 442.636719 L 529.363281 405 L 569.863281 364.5 L 567 361.636719 L 523.636719 405 L 564.136719 445.5 L 526.5 483.136719 L 448.363281 405 L 567 286.363281 L 729 448.363281 L 772.363281 405 L 731.863281 364.5 L 810 286.363281 L 810 280.636719 L 731.863281 202.5 Z M 162 448.363281 L 202.5 488.863281 L 243 448.363281 L 280.636719 486 L 202.5 564.136719 L 124.363281 486 Z M 321.136719 364.5 L 361.636719 405 L 324 442.636719 L 245.863281 364.5 L 286.363281 324 L 283.5 321.136719 L 243 361.636719 L 205.363281 324 L 283.5 245.863281 L 324 286.363281 L 326.863281 283.5 L 286.363281 243 L 324 205.363281 L 402.136719 283.5 Z M 567 448.363281 L 607.5 488.863281 L 648 448.363281 L 685.636719 486 L 607.5 564.136719 L 529.363281 486 Z M 807.136719 283.5 L 726.136719 364.5 L 766.636719 405 L 729 442.636719 L 650.863281 364.5 L 691.363281 324 L 688.5 321.136719 L 648 361.636719 L 610.363281 324 L 688.5 245.863281 L 729 286.363281 L 731.863281 283.5 L 691.363281 243 L 729 205.363281 Z M 769.5 78.136719 L 810 118.636719 L 810 124.363281 L 766.636719 81 Z M 807.136719 405 L 729 483.136719 L 567 321.136719 L 483.136719 405 L 526.5 448.363281 L 529.363281 445.5 L 488.863281 405 L 567 326.863281 L 604.636719 364.5 L 564.136719 405 L 567 407.863281 L 607.5 367.363281 L 645.136719 405 L 604.636719 445.5 L 607.5 448.363281 L 648 407.863281 L 766.636719 526.5 L 729 564.136719 L 688.5 523.636719 L 645.136719 567 L 685.636719 607.5 L 648 645.136719 L 567 564.136719 L 486 645.136719 L 448.363281 607.5 L 488.863281 567 L 486 564.136719 L 445.5 604.636719 L 326.863281 486 L 364.5 448.363281 L 445.5 529.363281 L 486 488.863281 L 526.5 529.363281 L 529.363281 526.5 L 445.5 442.636719 L 405 483.136719 L 367.363281 445.5 L 407.863281 405 L 367.363281 364.5 L 407.863281 324 L 405 321.136719 L 361.636719 364.5 L 402.136719 405 L 324 483.136719 L 162 321.136719 L 78.136719 405 L 121.5 448.363281 L 124.363281 445.5 L 83.863281 405 L 162 326.863281 L 199.636719 364.5 L 159.136719 405 L 162 407.863281 L 202.5 367.363281 L 240.136719 405 L 199.636719 445.5 L 202.5 448.363281 L 243 407.863281 L 361.636719 526.5 L 324 564.136719 L 283.5 523.636719 L 240.136719 567 L 280.636719 607.5 L 243 645.136719 L 162 564.136719 L 81 645.136719 L 43.363281 607.5 L 83.863281 567 L 81 564.136719 L 40.5 604.636719 L 0 564.136719 L 0 569.863281 L 37.636719 607.5 L 0 645.136719 L 0 650.863281 L 78.136719 729 L 37.636719 769.5 L 40.5 772.363281 L 83.863281 729 L 2.863281 648 L 40.5 610.363281 L 121.5 691.363281 L 124.363281 688.5 L 83.863281 648 L 121.5 610.363281 L 202.5 691.363281 L 205.363281 688.5 L 124.363281 607.5 L 162 569.863281 L 243 650.863281 L 364.5 529.363281 L 402.136719 567 L 361.636719 607.5 L 483.136719 729 L 442.636719 769.5 L 445.5 772.363281 L 488.863281 729 L 407.863281 648 L 445.5 610.363281 L 526.5 691.363281 L 529.363281 688.5 L 488.863281 648 L 526.5 610.363281 L 607.5 691.363281 L 610.363281 688.5 L 529.363281 607.5 L 567 569.863281 L 648 650.863281 L 769.5 529.363281 L 807.136719 567 L 766.636719 607.5 L 810 650.863281 L 810 645.136719 L 772.363281 607.5 L 810 569.863281 L 810 564.136719 L 731.863281 486 L 769.5 448.363281 L 810 488.863281 L 810 483.136719 L 772.363281 445.5 L 810 407.863281 L 810 402.136719 L 772.363281 364.5 L 810 326.863281 L 810 321.136719 L 766.636719 364.5 Z M 445.5 448.363281 L 483.136719 486 L 445.5 523.636719 L 407.863281 486 Z M 283.5 604.636719 L 245.863281 567 L 283.5 529.363281 L 321.136719 567 Z M 405 645.136719 L 367.363281 607.5 L 405 569.863281 L 442.636719 607.5 Z M 688.5 604.636719 L 650.863281 567 L 688.5 529.363281 L 726.136719 567 Z M 807.136719 40.5 L 810 37.636719 L 810 43.363281 Z M 807.136719 0 L 729 78.136719 L 650.863281 0 L 645.136719 0 L 604.636719 40.5 L 607.5 43.363281 L 648 2.863281 L 766.636719 121.5 L 729 159.136719 L 688.5 118.636719 L 645.136719 162 L 685.636719 202.5 L 648 240.136719 L 567 159.136719 L 486 240.136719 L 448.363281 202.5 L 488.863281 162 L 486 159.136719 L 445.5 199.636719 L 326.863281 81 L 364.5 43.363281 L 445.5 124.363281 L 486 83.863281 L 526.5 124.363281 L 529.363281 121.5 L 445.5 37.636719 L 405 78.136719 L 367.363281 40.5 L 407.863281 0 L 402.136719 0 L 324 78.136719 L 245.863281 0 L 240.136719 0 L 199.636719 40.5 L 202.5 43.363281 L 243 2.863281 L 361.636719 121.5 L 324 159.136719 L 283.5 118.636719 L 240.136719 162 L 280.636719 202.5 L 243 240.136719 L 162 159.136719 L 81 240.136719 L 43.363281 202.5 L 83.863281 162 L 81 159.136719 L 40.5 199.636719 L 0 159.136719 L 0 164.863281 L 37.636719 202.5 L 0 240.136719 L 0 245.863281 L 78.136719 324 L 37.636719 364.5 L 40.5 367.363281 L 83.863281 324 L 2.863281 243 L 40.5 205.363281 L 121.5 286.363281 L 124.363281 283.5 L 83.863281 243 L 121.5 205.363281 L 202.5 286.363281 L 205.363281 283.5 L 124.363281 202.5 L 162 164.863281 L 243 245.863281 L 364.5 124.363281 L 402.136719 162 L 361.636719 202.5 L 483.136719 324 L 442.636719 364.5 L 445.5 367.363281 L 488.863281 324 L 407.863281 243 L 445.5 205.363281 L 526.5 286.363281 L 529.363281 283.5 L 488.863281 243 L 526.5 205.363281 L 607.5 286.363281 L 610.363281 283.5 L 529.363281 202.5 L 567 164.863281 L 648 245.863281 L 769.5 124.363281 L 807.136719 162 L 766.636719 202.5 L 810 245.863281 L 810 240.136719 L 772.363281 202.5 L 810 164.863281 L 810 159.136719 L 731.863281 81 L 769.5 43.363281 L 810 83.863281 L 810 78.136719 L 772.363281 40.5 L 810 2.863281 L 810 0 Z M 445.5 43.363281 L 483.136719 81 L 445.5 118.636719 L 407.863281 81 Z M 283.5 199.636719 L 245.863281 162 L 283.5 124.363281 L 321.136719 162 Z M 405 240.136719 L 367.363281 202.5 L 405 164.863281 L 442.636719 202.5 Z M 688.5 199.636719 L 650.863281 162 L 688.5 124.363281 L 726.136719 162 Z M 607.5 124.363281 L 564.136719 81 L 567 78.136719 L 607.5 118.636719 L 648 78.136719 L 650.863281 81 Z M 567 2.863281 L 564.136719 0 L 569.863281 0 Z M 729 43.363281 L 685.636719 0 L 691.363281 0 L 729 37.636719 L 766.636719 0 L 772.363281 0 Z M 729 2.863281 L 726.136719 0 L 731.863281 0 Z M 526.5 43.363281 L 483.136719 0 L 488.863281 0 L 529.363281 40.5 Z M 81 488.863281 L 121.5 529.363281 L 124.363281 526.5 L 40.5 442.636719 L 0 483.136719 L 0 488.863281 L 40.5 529.363281 Z M 40.5 448.363281 L 78.136719 486 L 40.5 523.636719 L 2.863281 486 Z M 164.863281 769.5 L 124.363281 810 L 118.636719 810 L 162 766.636719 Z M 2.863281 729 L 0 731.863281 L 0 726.136719 Z M 0 807.136719 L 2.863281 810 L 0 810 Z M 286.363281 769.5 L 326.863281 810 L 321.136719 810 L 280.636719 769.5 L 321.136719 729 L 283.5 691.363281 L 243 731.863281 L 240.136719 729 L 283.5 685.636719 L 324 726.136719 L 361.636719 688.5 L 321.136719 648 L 324 645.136719 L 367.363281 688.5 Z M 202.5 807.136719 L 205.363281 810 L 199.636719 810 Z M 162 726.136719 L 245.863281 810 L 240.136719 810 L 202.5 772.363281 L 164.863281 810 L 159.136719 810 L 199.636719 769.5 L 162 731.863281 L 83.863281 810 L 78.136719 810 Z M 202.5 529.363281 L 159.136719 486 L 162 483.136719 L 202.5 523.636719 L 243 483.136719 L 245.863281 486 Z M 607.5 529.363281 L 564.136719 486 L 567 483.136719 L 607.5 523.636719 L 648 483.136719 L 650.863281 486 Z M 766.636719 769.5 L 810 726.136719 L 810 731.863281 L 772.363281 769.5 L 810 807.136719 L 810 810 L 807.136719 810 Z M 405 807.136719 L 407.863281 810 L 402.136719 810 L 361.636719 769.5 L 405 726.136719 L 407.863281 729 L 367.363281 769.5 Z M 807.136719 445.5 L 810 442.636719 L 810 448.363281 Z M 569.863281 769.5 L 529.363281 810 L 523.636719 810 L 567 766.636719 Z M 567 726.136719 L 650.863281 810 L 645.136719 810 L 607.5 772.363281 L 569.863281 810 L 564.136719 810 L 604.636719 769.5 L 567 731.863281 L 488.863281 810 L 483.136719 810 Z M 607.5 807.136719 L 610.363281 810 L 604.636719 810 Z M 731.863281 607.5 L 810 685.636719 L 810 691.363281 L 731.863281 769.5 L 772.363281 810 L 766.636719 810 L 726.136719 769.5 L 807.136719 688.5 L 729 610.363281 L 691.363281 648 L 731.863281 688.5 L 729 691.363281 L 688.5 650.863281 L 610.363281 729 L 648 766.636719 L 688.5 726.136719 L 691.363281 729 L 650.863281 769.5 L 691.363281 810 L 685.636719 810 L 567 691.363281 L 448.363281 810 L 442.636719 810 L 402.136719 769.5 L 442.636719 729 L 405 691.363281 L 326.863281 769.5 L 367.363281 810 L 361.636719 810 L 321.136719 769.5 L 402.136719 688.5 L 324 610.363281 L 286.363281 648 L 326.863281 688.5 L 324 691.363281 L 283.5 650.863281 L 205.363281 729 L 243 766.636719 L 283.5 726.136719 L 286.363281 729 L 245.863281 769.5 L 286.363281 810 L 280.636719 810 L 162 691.363281 L 43.363281 810 L 37.636719 810 L 0 772.363281 L 0 766.636719 L 37.636719 729 L 0 691.363281 L 0 685.636719 L 43.363281 729 L 2.863281 769.5 L 40.5 807.136719 L 118.636719 729 L 37.636719 648 L 40.5 645.136719 L 121.5 726.136719 L 159.136719 688.5 L 118.636719 648 L 121.5 645.136719 L 202.5 726.136719 L 240.136719 688.5 L 159.136719 607.5 L 162 604.636719 L 243 685.636719 L 364.5 564.136719 L 367.363281 567 L 326.863281 607.5 L 448.363281 729 L 407.863281 769.5 L 445.5 807.136719 L 523.636719 729 L 442.636719 648 L 445.5 645.136719 L 526.5 726.136719 L 564.136719 688.5 L 523.636719 648 L 526.5 645.136719 L 607.5 726.136719 L 645.136719 688.5 L 564.136719 607.5 L 567 604.636719 L 648 685.636719 L 769.5 564.136719 L 772.363281 567 Z M 807.136719 769.5 L 810 766.636719 L 810 772.363281 Z M 769.5 483.136719 L 810 523.636719 L 810 529.363281 L 766.636719 486 Z M 691.363281 769.5 L 731.863281 810 L 726.136719 810 L 685.636719 769.5 L 726.136719 729 L 688.5 691.363281 L 648 731.863281 L 645.136719 729 L 688.5 685.636719 L 729 726.136719 L 766.636719 688.5 L 726.136719 648 L 729 645.136719 L 772.363281 688.5 Z M 691.363281 769.5 " fill-opacity="1" fill-rule="nonzero"/></svg>