<?xml version="1.0"?><svg id="bananas" xmlns="http://www.w3.org/2000/svg" viewBox="0 0 1080 1080" xmlns:c2pa="http://c2pa.org/manifest"><metadata><c2pa:manifest>AAAWgmp1bWIAAAAeanVtZGMycGEAEQAQgAAAqgA4m3EDYzJwYQAAABZcanVtYgAAAEdqdW1kYzJtYQARABCAAACqADibcQN1cm46YzJwYTpjMmZmMjRmNi0yNTU0LTRmZjctOGRlZC0zOWY3ZDhjZjY1YTgAAAADl2p1bWIAAAApanVtZGMyYXMAEQAQgAAAqgA4m3EDYzJwYS5hc3NlcnRpb25zAAAAALxqdW1iAAAARGp1bWRjYm9yABEAEIAAAKoAOJtxE2MycGEuaW5ncmVkaWVudC52MwAAAAAYYzJzaKvR5vbs8tmFPGi4RV9SficAAABwY2JvcqNpZGM6Zm9ybWF0bWltYWdlL3N2Zyt4bWxqaW5zdGFuY2VJRHgseG1wOmlpZDo2N2VmNGRjOC1mOGIyLTRlN2ItODEzNC0wYzM3NTcyZGEzNDVscmVsYXRpb25zaGlwaHBhcmVudE9mAAAB4mp1bWIAAABBanVtZGNib3IAEQAQgAAAqgA4m3ETYzJwYS5hY3Rpb25zLnYyAAAAABhjMnNo/S5CDlV8kVngmtCI7tgq4QAAAZljYm9yomdhY3Rpb25zgqJmYWN0aW9ua2MycGEub3BlbmVkanBhcmFtZXRlcnOha2luZ3JlZGllbnRzgaJjdXJseC1zZWxmI2p1bWJmPWMycGEuYXNzZXJ0aW9ucy9jMnBhLmluZ3JlZGllbnQudjNkaGFzaFggw/pwSuTHKJUPQ7y+o8FrVDdUBfldaY00GrO2K66yjmKkZmFjdGlvbngdY29tLmFudGhyb3BpYy5jbGF1ZGUucHJvdmlkZWRqcGFyYW1ldGVyc6F4H2NvbS5hbnRocm9waWMub3JpZ2luLWNvbmZpZGVuY2VndW5rbm93bmtkZXNjcmlwdGlvbnhmQ2xhdWRlIHByb3ZpZGVkIHRoaXMgZmlsZSBhdCB0aGUgcmVxdWVzdCBvZiBhIHVzZXIgYW5kIG1heSBoYXZlIGNyZWF0ZWQgb3IgbW9kaWZpZWQgdGhlIGZpbGUgY29udGVudHMubXNvZnR3YXJlQWdlbnShZG5hbWVmQ2xhdWRlcmFsbEFjdGlvbnNJbmNsdWRlZPUAAADIanVtYgAAAEBqdW1kY2JvcgARABCAAACqADibcRNjMnBhLmhhc2guZGF0YQAAAAAYYzJzaAelZEVINyL3KnF0r4N9eLQAAACAY2JvcqVjYWxnZnNoYTI1NmNwYWRNAAAAAAAAAAAAAAAAAGRoYXNoWCDezgf8rX1UzFQavtJdjPASFHBF23mmfyf5VdRr+KhSc2RuYW1lbmp1bWJmIG1hbmlmZXN0amV4Y2x1c2lvbnOBomVzdGFydBihZmxlbmd0aBkeBAAAAj5qdW1iAAAAJ2p1bWRjMmNsABEAEIAAAKoAOJtxA2MycGEuY2xhaW0udjIAAAACD2Nib3KlY2FsZ2ZzaGEyNTZpc2lnbmF0dXJleE1zZWxmI2p1bWJmPS9jMnBhL3VybjpjMnBhOmMyZmYyNGY2LTI1NTQtNGZmNy04ZGVkLTM5ZjdkOGNmNjVhOC9jMnBhLnNpZ25hdHVyZWppbnN0YW5jZUlEeCx4bXA6aWlkOjIxYTAwNTM4LWZiMGUtNGI5NC1hZjExLTAwMTE0MTJmOWVmN3JjcmVhdGVkX2Fzc2VydGlvbnODomN1cmx4LXNlbGYjanVtYmY9YzJwYS5hc3NlcnRpb25zL2MycGEuaW5ncmVkaWVudC52M2RoYXNoWCDD+nBK5McolQ9DvL6jwWtUN1QF+V1pjTQas7YrrrKOYqJjdXJseCpzZWxmI2p1bWJmPWMycGEuYXNzZXJ0aW9ucy9jMnBhLmFjdGlvbnMudjJkaGFzaFgg0xUo1y8WskH9201t/2iYfZzpqFT5kyDewdXpinIZEZSiY3VybHgpc2VsZiNqdW1iZj1jMnBhLmFzc2VydGlvbnMvYzJwYS5oYXNoLmRhdGFkaGFzaFggGQTLxxjphCkEPXdwSdLkZ0qjyysg6A6kR2opYQCypfF0Y2xhaW1fZ2VuZXJhdG9yX2luZm+jZG5hbWVvQW50aHJvcGljIEZpbGVzZ3ZlcnNpb25lMS4wLjBrc3BlY1ZlcnNpb25lMi40LjAAABA4anVtYgAAAChqdW1kYzJjcwARABCAAACqADibcQNjMnBhLnNpZ25hdHVyZQAAABAIY2JvctKEWQISogEmGCFZAgowggIGMIIBjaADAgECAhRA5aAK7sI50L64g/oGQgU9Z1UTADAKBggqhkjOPQQDAzBJMRcwFQYDVQQKEw5BbnRocm9waWMsIFBCQzEuMCwGA1UEAxMlQW50aHJvcGljIENvbnRlbnQgQ3JlZGVudGlhbHMgUm9vdCBDQTAeFw0yNjA4MDcxODQzNTZaFw0yODA4MDYxOTQzNTZaMEQxFzAVBgNVBAoTDkFudGhyb3BpYywgUEJDMSkwJwYDVQQDEyBBbnRocm9waWMgQ2xhdWRlIENvbnRlbnQgU2lnbmluZzBZMBMGByqGSM49AgEGCCqGSM49AwEHA0IABJh6CmvLUBgFFNU0vUKlOVtE6djd17L5SuwX0LemFisBM3dkd/3cyjxFA3Qo5S46fX0/ihY0VZ7mfb9KF703t5OjWDBWMA4GA1UdDwEB/wQEAwIHgDAVBgNVHSUEDjAMBgorBgEEAYPoXgIBMAwGA1UdEwEB/wQCMAAwHwYDVR0jBBgwFoAUzlHiBIFOZFsj+OPEz5o+nMHXXMIwCgYIKoZIzj0EAwMDZwAwZAIwMXMdFJ4BetLLVY7ORuE9noqbbAZOZn/aArXyTwFAZfKrPzxF2vPoJNf1+UCdg1XGAjBwX1zd9WGqYkqmL5SFqw1QySjr1zJfpJM9+1rdDwSPLMOPOjKuiXjoU/pUUeG9RwmhY3BhZFkNngAAAAAAAAAAAAAAAAAAAAAAAAAAAAAAAAAAAAAAAAAAAAAAAAAAAAAAAAAAAAAAAAAAAAAAAAAAAAAAAAAAAAAAAAAAAAAAAAAAAAAAAAAAAAAAAAAAAAAAAAAAAAAAAAAAAAAAAAAAAAAAAAAAAAAAAAAAAAAAAAAAAAAAAAAAAAAAAAAAAAAAAAAAAAAAAAAAAAAAAAAAAAAAAAAAAAAAAAAAAAAAAAAAAAAAAAAAAAAAAAAAAAAAAAAAAAAAAAAAAAAAAAAAAAAAAAAAAAAAAAAAAAAAAAAAAAAAAAAAAAAAAAAAAAAAAAAAAAAAAAAAAAAAAAAAAAAAAAAAAAAAAAAAAAAAAAAAAAAAAAAAAAAAAAAAAAAAAAAAAAAAAAAAAAAAAAAAAAAAAAAAAAAAAAAAAAAAAAAAAAAAAAAAAAAAAAAAAAAAAAAAAAAAAAAAAAAAAAAAAAAAAAAAAAAAAAAAAAAAAAAAAAAAAAAAAAAAAAAAAAAAAAAAAAAAAAAAAAAAAAAAAAAAAAAAAAAAAAAAAAAAAAAAAAAAAAAAAAAAAAAAAAAAAAAAAAAAAAAAAAAAAAAAAAAAAAAAAAAAAAAAAAAAAAAAAAAAAAAAAAAAAAAAAAAAAAAAAAAAAAAAAAAAAAAAAAAAAAAAAAAAAAAAAAAAAAAAAAAAAAAAAAAAAAAAAAAAAAAAAAAAAAAAAAAAAAAAAAAAAAAAAAAAAAAAAAAAAAAAAAAAAAAAAAAAAAAAAAAAAAAAAAAAAAAAAAAAAAAAAAAAAAAAAAAAAAAAAAAAAAAAAAAAAAAAAAAAAAAAAAAAAAAAAAAAAAAAAAAAAAAAAAAAAAAAAAAAAAAAAAAAAAAAAAAAAAAAAAAAAAAAAAAAAAAAAAAAAAAAAAAAAAAAAAAAAAAAAAAAAAAAAAAAAAAAAAAAAAAAAAAAAAAAAAAAAAAAAAAAAAAAAAAAAAAAAAAAAAAAAAAAAAAAAAAAAAAAAAAAAAAAAAAAAAAAAAAAAAAAAAAAAAAAAAAAAAAAAAAAAAAAAAAAAAAAAAAAAAAAAAAAAAAAAAAAAAAAAAAAAAAAAAAAAAAAAAAAAAAAAAAAAAAAAAAAAAAAAAAAAAAAAAAAAAAAAAAAAAAAAAAAAAAAAAAAAAAAAAAAAAAAAAAAAAAAAAAAAAAAAAAAAAAAAAAAAAAAAAAAAAAAAAAAAAAAAAAAAAAAAAAAAAAAAAAAAAAAAAAAAAAAAAAAAAAAAAAAAAAAAAAAAAAAAAAAAAAAAAAAAAAAAAAAAAAAAAAAAAAAAAAAAAAAAAAAAAAAAAAAAAAAAAAAAAAAAAAAAAAAAAAAAAAAAAAAAAAAAAAAAAAAAAAAAAAAAAAAAAAAAAAAAAAAAAAAAAAAAAAAAAAAAAAAAAAAAAAAAAAAAAAAAAAAAAAAAAAAAAAAAAAAAAAAAAAAAAAAAAAAAAAAAAAAAAAAAAAAAAAAAAAAAAAAAAAAAAAAAAAAAAAAAAAAAAAAAAAAAAAAAAAAAAAAAAAAAAAAAAAAAAAAAAAAAAAAAAAAAAAAAAAAAAAAAAAAAAAAAAAAAAAAAAAAAAAAAAAAAAAAAAAAAAAAAAAAAAAAAAAAAAAAAAAAAAAAAAAAAAAAAAAAAAAAAAAAAAAAAAAAAAAAAAAAAAAAAAAAAAAAAAAAAAAAAAAAAAAAAAAAAAAAAAAAAAAAAAAAAAAAAAAAAAAAAAAAAAAAAAAAAAAAAAAAAAAAAAAAAAAAAAAAAAAAAAAAAAAAAAAAAAAAAAAAAAAAAAAAAAAAAAAAAAAAAAAAAAAAAAAAAAAAAAAAAAAAAAAAAAAAAAAAAAAAAAAAAAAAAAAAAAAAAAAAAAAAAAAAAAAAAAAAAAAAAAAAAAAAAAAAAAAAAAAAAAAAAAAAAAAAAAAAAAAAAAAAAAAAAAAAAAAAAAAAAAAAAAAAAAAAAAAAAAAAAAAAAAAAAAAAAAAAAAAAAAAAAAAAAAAAAAAAAAAAAAAAAAAAAAAAAAAAAAAAAAAAAAAAAAAAAAAAAAAAAAAAAAAAAAAAAAAAAAAAAAAAAAAAAAAAAAAAAAAAAAAAAAAAAAAAAAAAAAAAAAAAAAAAAAAAAAAAAAAAAAAAAAAAAAAAAAAAAAAAAAAAAAAAAAAAAAAAAAAAAAAAAAAAAAAAAAAAAAAAAAAAAAAAAAAAAAAAAAAAAAAAAAAAAAAAAAAAAAAAAAAAAAAAAAAAAAAAAAAAAAAAAAAAAAAAAAAAAAAAAAAAAAAAAAAAAAAAAAAAAAAAAAAAAAAAAAAAAAAAAAAAAAAAAAAAAAAAAAAAAAAAAAAAAAAAAAAAAAAAAAAAAAAAAAAAAAAAAAAAAAAAAAAAAAAAAAAAAAAAAAAAAAAAAAAAAAAAAAAAAAAAAAAAAAAAAAAAAAAAAAAAAAAAAAAAAAAAAAAAAAAAAAAAAAAAAAAAAAAAAAAAAAAAAAAAAAAAAAAAAAAAAAAAAAAAAAAAAAAAAAAAAAAAAAAAAAAAAAAAAAAAAAAAAAAAAAAAAAAAAAAAAAAAAAAAAAAAAAAAAAAAAAAAAAAAAAAAAAAAAAAAAAAAAAAAAAAAAAAAAAAAAAAAAAAAAAAAAAAAAAAAAAAAAAAAAAAAAAAAAAAAAAAAAAAAAAAAAAAAAAAAAAAAAAAAAAAAAAAAAAAAAAAAAAAAAAAAAAAAAAAAAAAAAAAAAAAAAAAAAAAAAAAAAAAAAAAAAAAAAAAAAAAAAAAAAAAAAAAAAAAAAAAAAAAAAAAAAAAAAAAAAAAAAAAAAAAAAAAAAAAAAAAAAAAAAAAAAAAAAAAAAAAAAAAAAAAAAAAAAAAAAAAAAAAAAAAAAAAAAAAAAAAAAAAAAAAAAAAAAAAAAAAAAAAAAAAAAAAAAAAAAAAAAAAAAAAAAAAAAAAAAAAAAAAAAAAAAAAAAAAAAAAAAAAAAAAAAAAAAAAAAAAAAAAAAAAAAAAAAAAAAAAAAAAAAAAAAAAAAAAAAAAAAAAAAAAAAAAAAAAAAAAAAAAAAAAAAAAAAAAAAAAAAAAAAAAAAAAAAAAAAAAAAAAAAAAAAAAAAAAAAAAAAAAAAAAAAAAAAAAAAAAAAAAAAAAAAAAAAAAAAAAAAAAAAAAAAAAAAAAAAAAAAAAAAAAAAAAAAAAAAAAAAAAAAAAAAAAAAAAAAAAAAAAAAAAAAAAAAAAAAAAAAAAAAAAAAAAAAAAAAAAAAAAAAAAAAAAAAAAAAAAAAAAAAAAAAAAAAAAAAAAAAAAAAAAAAAAAAAAAAAAAAAAAAAAAAAAAAAAAAAAAAAAAAAAAAAAAAAAAAAAAAAAAAAAAAAAAAAAAAAAAAAAAAAAAAAAAAAAAAAAAAAAAAAAAAAAAAAAAAAAAAAAAAAAAAAAAAAAAAAAAAAAAAAAAAAAAAAAAAAAAAAAAAAAAAAAAAAAAAAAAAAAAAAAAAAAAAAAAAAAAAAAAAAAAAAAAAAAAAAAAAAAAAAAAAAAAAAAAAAAAAAAAAAAAAAAAAAAAAAAAAAAAAAAAAAAAAAAAAAAAAAAAAAAAAAAAAAAAAAAAAAAAAAAAAAAAAAAAAAAAAAAAAAAAAAAAAAAAAAAAAAAAAAAAAAAAAAAAAAAAAAAAAAAAAAAAAAAAAAAAAAAAAAAAAAAAAAAAAAAAAAAAAAAAAAAAAAAAAAAAAAAAAAAAAAAAAAAAAAAAAAAAAAAAAAAAAAAAAAAAAAAAAAAAAAAAAAAAAAAAAAAAAAAAAAAAAAAAAAAAAAAAAAAAAAAAAAAAAAAAAAAAAAAAAAAAAAAAAAAAAAAAAAAAAAAAAAAAAAAAAAAAAAAAAAAAAAAAAAAAAAAAAAAAAAAAAAAAAAAAAAAAAAAAAAAAAAAAAAAAAAAAAAAAAAAAAAAAAAAAAAAAAAAAAAAAAAAAAAAAAAAAAAAAAAAAAAAAAAAAAAAAAAAAAAAAAAAAAAAAAAAAAAAAAAAAAAAAAAAAAAAAAAAAAAAAAAAAAAAAAAAAAAAAAAAAAAAAAAAAAAAAAAAAAAAAAAAAAAAAAAAAAAAAAAAAAAAAAAAAAAAAAAAAAAAAAAAAAAAAAAAAAAAAAAAAAAAAAAAAAAAAAAAAAAAAAAAAAAAAAAAAAAAAAAAAAAAAAAAAAAAAAAAAAAAAAAAAAAAAAAAAAAAAAAAAAAAAAAAAAAAAAAAAAAAAAAAAAAAAAAAAAAAAAAAAAAAAAAAAAAAAAAAAAAAAAAAAAAAAAAAAAAAAAAAAAAAAAAAAAAAAAAAAAAAAAAAAAAAAAAAAAAAAAAAAAAAAAAAAAAAAAAAAAAAAAAAAAAAAAAAAAAAAAAAAAAAAAAAAAAAAAAAAAAAAAAAAAAAAAAAAAAAAAAAAAAAAAAAAAAAAAAAAAAAAAAAAAAAAAAAAAAAAAAAAAAAAAAAAAAAAAAAAAAAAAAAAAAAAAAAAAAAAAAAAAAAAAAAAAAAAAAAAAAAAAAAAAAAAAAAAAAAAAAAAAAAAAAAAAAAAAAAAAAAAAAAAAAAAAAAAAAAAAAAAAAAAAAAAAAAAAAAAAAAAAAAAAAAAAAAAAAAAAAAAAAAAAAAAAAAAAAAAAAAAAAAAAAAAAAAAAAAAAAAAAAAAAAAAAAAAAAAAAAAAAPZYQGY2ntPD2uiubwiF7wOeaMzo5ogm1aiFycmtwhTP/Ls1vvYRU2KJINdsqcKUckpbteLckcFXlSM2t4RgXu14Q6Q=</c2pa:manifest></metadata>
  <defs>
    
  </defs>
  <path fill="#fed847" stroke="#775c21" stroke-width="6" stroke-miterlimit="10" d="M759.36,279.28v76.51s-228.04,320.64-377.72,296.81c-149.67-23.83-210.1-134.85-210.1-134.85,0,0-9.24-46.18,12.47-56.34,21.7-10.16-6-4.27,149.49,2.25s186.43-23.61,186.43-23.61c0,0,85.92-65.78,122.43-84.65s31.04-10.35,44.43-18.26,25.56-57.86,25.56-57.86"></path>
  <path fill="#aeb535" d="M711.12,278.82s-9.11,37.91-14.88,46.29c-4.08,5.93-9.46,12.03-9.46,12.03l43.05,16.03,13.4-77.44-32.12,3.09Z"></path>
  <path fill="none" stroke="#775c21" stroke-width="6" stroke-miterlimit="10" d="M759.36,279.28v76.51s-228.04,320.64-377.72,296.81c-149.67-23.83-210.1-134.85-210.1-134.85,0,0-9.24-46.18,12.47-56.34,21.7-10.16-6-4.27,149.49,2.25s186.43-23.61,186.43-23.61c0,0,85.92-65.78,122.43-84.65s31.04-10.35,44.43-18.26,25.56-57.86,25.56-57.86"></path>
  <path fill="none" stroke="#775c21" stroke-width="6" stroke-miterlimit="10" d="M725.9,279.28v53.86c0,8.34-2,16.57-5.83,23.98l-.45.87c-4.79,9.27-12.28,16.84-21.42,21.87-9.68,5.33-24.16,15.95-41.09,36.89-7.43,9.19-14,19.04-19.84,29.31-15.2,26.69-72.15,113.34-178.6,129.27-92.72,13.87-152.72,31.5-178.01,39.87-7.79,2.58-15.95,3.8-24.15,3.92-5.75.08-12.59,1.25-16.93,5.59-8.67,8.67-12.67,48.69-2.67,61.37,10.01,12.67,64.3,59.37,119.57,70.19,55.27,10.81,216.29,0,216.29,0l249.94-247.53-27.64-218.7"></path>
  <path fill="#fed847" stroke="#775c21" stroke-width="6" stroke-miterlimit="10" d="M725.9,279.28v53.86c0,8.34-2,16.57-5.83,23.98l-.45.87c-4.79,9.27-12.28,16.84-21.42,21.87-9.68,5.33-24.16,15.95-41.09,36.89-7.43,9.19-14,19.04-19.84,29.31-15.2,26.69-72.15,113.34-178.6,129.27-92.72,13.87-152.72,31.5-178.01,39.87-7.79,2.58-15.95,3.8-24.15,3.92-5.75.08-12.59,1.25-16.93,5.59-8.67,8.67-12.67,48.69-2.67,61.37,10.01,12.67,64.3,59.37,119.57,70.19,55.27,10.81,216.29,0,216.29,0l249.94-247.53-27.64-218.7"></path>
  <path fill="#aeb535" d="M795.06,290.04l-21.18,92.18-9.9.48c-20.31.99-40.62-1.8-59.9-8.23h0c9.14-5.04,8.22-2.88,13.01-12.14l6.8-14.8c3.83-7.41,2.01-6.04,2.01-14.38v-53.86l69.16,10.75Z"></path>
  <path fill="none" stroke="#775c21" stroke-width="6" stroke-miterlimit="10" d="M725.9,279.28v53.86c0,8.34-2,16.57-5.83,23.98l-.45.87c-4.79,9.27-12.28,16.84-21.42,21.87-9.68,5.33-24.16,15.95-41.09,36.89-7.43,9.19-14,19.04-19.84,29.31-15.2,26.69-72.15,113.34-178.6,129.27-92.72,13.87-152.72,31.5-178.01,39.87-7.79,2.58-15.95,3.8-24.15,3.92-5.75.08-12.59,1.25-16.93,5.59-8.67,8.67-12.67,48.69-2.67,61.37,10.01,12.67,64.3,59.37,119.57,70.19,55.27,10.81,216.29,0,216.29,0l249.94-247.53-27.64-218.7"></path>
  <path fill="#fed847" stroke="#775c21" stroke-width="6" stroke-miterlimit="10" d="M768.01,284.14c0,11.43,3.4,42.68,8.04,66.77,2.75,14.3.29,29.13-6.86,41.82-6.18,10.97-13.66,26.54-15.27,39.95-2.84,23.69-2.88,108.51-48.65,157.97-45.77,49.46-248.77,201.52-248.77,201.52,0,0-27.97,31.82,0,57.09,27.97,25.26,237.93,73.24,383.89-119.2,111.05-146.42,71.89-262.18,46.81-309.17-6.58-12.33-16.17-22.77-27.74-30.62-11.45-7.77-26.73-20.89-30.75-37.63-6.67-27.69-4.29-42.16-8.72-55.48"></path>
  <path fill="#aeb535" d="M847.39,380.88c-11.45-7.77-14.65-11.49-18.68-28.23-6.67-27.69-4.29-42.16-8.72-55.48l-51.98-13.02c0,11.43,3.4,42.68,8.04,66.77,2.75,14.3,4.98,18.61-2.17,31.3l5.48,1.28c22.5,5.25,46,4.35,68.03-2.62h0Z"></path>
  <path fill="#775c21" stroke="#775c21" stroke-width="6" stroke-miterlimit="10" d="M456.5,792.18s21.93,2.6,27.06,26.35c5.12,23.75-8.48,40.78-8.48,40.78,0,0-30.45-8.19-31-30.07s12.43-37.06,12.43-37.06Z"></path>
  <path fill="#775c21" stroke="#775c21" stroke-width="6" stroke-miterlimit="10" d="M256.49,619.13s19.92,20.69,11.63,40.18c-8.29,19.49-31.22,26.78-31.22,26.78,0,0-8.68-16.06-5.11-38.01s7.74-27.01,24.71-28.95Z"></path>
  <path fill="#775c21" stroke="#775c21" stroke-width="6" stroke-miterlimit="10" d="M195.56,456.35s14.88,5.37,11.88,22.1-15.88,44.01-32.61,44.75c0,0-12.11-17.77-5.24-36.6s11.09-27.9,25.97-30.26Z"></path>
  <path fill="none" stroke="#775c21" stroke-width="6" stroke-miterlimit="10" d="M768.01,284.14c0,11.43,3.4,42.68,8.04,66.77,2.75,14.3.29,29.13-6.86,41.82-6.18,10.97-13.66,26.54-15.27,39.95-2.84,23.69-2.88,108.51-48.65,157.97-45.77,49.46-248.77,201.52-248.77,201.52,0,0-27.97,31.82,0,57.09,27.97,25.26,237.93,73.24,383.89-119.2,111.05-146.42,71.89-262.18,46.81-309.17-6.58-12.33-16.17-22.77-27.74-30.62-11.45-7.77-26.73-20.89-30.75-37.63-6.67-27.69-4.29-42.16-8.72-55.48"></path>
  <path fill="#7c5127" stroke="#5b340f" stroke-width="6" stroke-miterlimit="10" d="M822.7,256.28s-14.72-15.91-35.65-20.09c-12.86-2.57-26.98-10.51-35.96-16.26-6.58-4.21-14.76-4.98-22.03-2.13-8.68,3.41-19.95,8.96-27.71,16.94-14.38,14.79-7.02,39.65,13.06,44.4l53.93,12.73,32.94,12.97"></path>
  <path fill="#7c5127" stroke="#5b340f" stroke-width="6" stroke-miterlimit="10" d="M795.42,247.07c13.69-3.52,25.03,6.99,27.28,9.21.72.71,16.49,16.73,8.72,33.49-5.4,11.67-18.91,16.56-30.14,15.07-12.95-1.72-24.13-12.08-25.95-25.56-1.91-14.17,6.94-28.83,20.09-32.21Z"></path>
</svg>