<?xml version="1.0" encoding="UTF-8"?>
<svg id="cowboy-hat" xmlns="http://www.w3.org/2000/svg" viewBox="0 0 1080 1400">
  <defs>
    <style>
      .cls-1 {
        fill: #ae805f;
      }

      .cls-1, .cls-2, .cls-3 {
        fill-rule: evenodd;
      }

      .cls-2 {
        fill: #650000;
      }

      .cls-3 {
        fill: #946346;
      }
    </style>
  </defs>
  <path class="cls-1" d="M206.54,354.16c-22.81,49.13-1.65,99.29,19.86,136.38,107.34,185.05,518.82,181.49,627.78-4.37,33.03-56.34,38.01-108.16,14.62-142.35-22.21-32.47-86.24-39.14-133.15-7.46-217.63,146.94-230.52,133.69-435.88,0-37.19-24.21-70.14-31.96-93.24,17.81h0Z"/>
  <path class="cls-3" d="M269.66,331.85c-17.49-11.6-36.08,4.08-46.7,25.48-21.36,43.02,1.72,79.83,22.47,112.67,112.42,177.89,493.04,175.09,587.81,1.24,19.25-35.3,45.94-70.12,24.2-113.92-19.34-38.96-87.58-32.65-115.31-8.04-252.47,224.08-310.04,90.29-472.47-17.44h0Z"/>
  <path class="cls-1" d="M725.22,470.27c-61.4,49.44-296.77,45.06-369.44-4.18-6.62-41.65,18.62-311.36,108.76-279.5,39.95,14.12,113.37,12.7,142.55,5.81,99.17-23.41,116.23,175.58,118.12,277.87h0Z"/>
  <path class="cls-2" d="M355.65,465.59c-1.33-8.96-1.01-24.5,1.1-43.88,84.16,38.53,285.84,42.6,365.41,6.28,1.72,14.04,2.73,28.15,2.99,42.23-61.65,49.3-296.66,44.89-369.26-4.31-.08-.1-.16-.21-.24-.31h0Z"/>
  <path class="cls-3" d="M458.29,196c44.81,13.9,117.42,18.9,163.34,4.13,28.64-9.21,61.38,32.67-79.2,29-149.96-3.91-110.2-41.22-84.14-33.14h0Z"/>
</svg>