<?xml version="1.0" encoding="UTF-8"?>
<svg id="stripe-tie" xmlns="http://www.w3.org/2000/svg" viewBox="0 0 1080 1400">
  <defs>
    <style>
      .cls-1 {
        fill: #185c94;
      }

      .cls-2 {
        fill: #065093;
      }

      .cls-3 {
        fill: #fff;
      }

      .cls-4 {
        fill: #2977b7;
      }
    </style>
  </defs>
  <path class="cls-4" d="M612.52,1347.42c.01.1-.05.2-.18.28l-71.83,44.42c-.27.17-.75.17-1.02,0l-71.83-44.42c-.13-.08-.19-.18-.18-.28.56-5.35,1.12-10.58,1.68-15.71.13-1.21.27-2.41.4-3.6,1.03-9.26,2.06-18.17,3.1-26.73.12-.97.24-1.93.36-2.89,10.17-82.9,20.7-133.2,28.48-162.4.28-1.05.55-2.07.82-3.06,1.9-6.96,3.63-12.62,5.12-17.15-7.24-1.33-13.61-4.75-17.58-9.65-11.49-14.17-15.3-31.27-19.53-44.85-3.77-12.13,8.52-23.74,25.13-23.74h88.07c16.58.21,28.62,11.93,24.62,23.99-6.59,19.87-9.96,34.51-16.12,43.33-4.01,5.75-11.17,9.76-19.42,11.07,1.52,4.63,3.28,10.42,5.22,17.57.29,1.07.59,2.16.88,3.28,7.81,29.5,18.32,80.08,28.46,163.14.14,1.14.28,2.28.42,3.43,1.02,8.48,2.04,17.28,3.05,26.44.13,1.21.26,2.43.4,3.65.5,4.54.99,9.17,1.48,13.88Z"/>
  <path class="cls-2" d="M554.61,1117.62l-2.09-2.09-60.23,60.26c-.35,1.71-.7,3.45-1.05,5.23l63.37-63.4Z"/>
  <path class="cls-3" d="M512.67,1037.64l73.26,73.26c2.44-1.67,4.52-3.66,6.11-5.94,1.89-2.71,3.52-5.97,5.06-9.77l-57.55-57.55h-26.87Z"/>
  <path class="cls-2" d="M558.34,1116.11l-75.85-75.85c-.98.43-1.92.91-2.81,1.43l76.54,76.54,2.12-2.12Z"/>
  <path class="cls-2" d="M591.48,1195.17c-.22-1.21-.45-2.4-.67-3.57l-119.28,119.28c-.19,1.59-.37,3.19-.56,4.8l120.51-120.51Z"/>
  <path class="cls-1" d="M581.24,1113.03c-3.98,1.83-8.35,2.63-12.73,2.58-11.31-.14-45.09-.07-57.12-.05-4.99.01-9.95-1.09-14.33-3.48-2.94-1.61-5.48-3.65-7.45-6.04,1.01,1.62,2.09,3.22,3.26,4.77,1.85,2.45,4.26,4.53,7.05,6.16,4.08,2.39,8.7,3.49,13.35,3.48,11.21-.03,42.69-.09,53.22.05,4.08.05,8.15-.75,11.86-2.58,4.04-2,7.43-4.86,9.71-8.38.43-.66.83-1.35,1.23-2.07-2.21,2.24-4.95,4.13-8.06,5.56Z"/>
  <path class="cls-2" d="M607.2,1300.24c0-.07-.02-.15-.03-.22-.15-1.2-.29-2.37-.44-3.55l-84.8,84.8,2.62,1.62,82.64-82.64Z"/>
  <path class="cls-3" d="M582.92,1153.85c-1.47-6.3-2.88-11.95-4.21-16.97-.29-1.12-.59-2.21-.88-3.28-.11-.41-.22-.8-.33-1.2l-94.43,94.43c-1.58,9.82-3.17,20.36-4.77,31.64l104.62-104.62Z"/>
  <path class="cls-3" d="M601.77,1258.97c-1.16-8.19-2.31-15.99-3.46-23.41l-119.21,119.21,16.6,10.27,106.07-106.07Z"/>
</svg>