<svg xmlns="http://www.w3.org/2000/svg" xmlns:xlink="http://www.w3.org/1999/xlink" width="500" zoomAndPan="magnify" viewBox="0 0 375 374.999991" height="500" preserveAspectRatio="xMidYMid meet" version="1.0"><defs><clipPath id="783a20f296"><path d="M 17.046875 18.75 L 358.296875 18.75 L 358.296875 356.25 L 17.046875 356.25 Z M 17.046875 18.75 " clip-rule="nonzero"></path></clipPath><clipPath id="f470438fed"><path d="M 17.046875 18.75 L 358.296875 18.75 L 358.296875 330 L 17.046875 330 Z M 17.046875 18.75 " clip-rule="nonzero"></path></clipPath></defs><g clip-path="url(#783a20f296)"><path fill="#f3e3ca" d="M 187.667969 88.742188 C 175.417969 88.796875 163.167969 90.1875 150.917969 93.433594 C 130.023438 59.878906 103.976562 37.296875 75.292969 25.292969 C 54.054688 16.410156 53.769531 14.527344 46.871094 34.746094 C 29.527344 85.613281 40.488281 129.621094 52.488281 169.90625 C 46.175781 198.375 34.53125 224.1875 17.046875 247.078125 C 19.0625 253.789062 26.660156 257.707031 36.128906 260.695312 C 30.660156 263.265625 10.507812 267.550781 24.160156 273.699219 C 71.769531 295.140625 115.644531 310.585938 150.640625 340.589844 C 174.734375 361.246094 200.597656 361.246094 224.691406 340.589844 C 259.6875 310.585938 303.5625 295.140625 351.171875 273.699219 C 364.824219 267.550781 344.667969 263.265625 339.203125 260.695312 C 348.671875 257.707031 356.269531 253.789062 358.285156 247.078125 C 340.800781 224.1875 329.15625 198.378906 322.84375 169.90625 C 334.84375 129.621094 345.808594 85.613281 328.460938 34.75 C 321.5625 14.527344 321.277344 16.410156 300.039062 25.296875 C 271.355469 37.296875 245.308594 59.878906 224.414062 93.433594 C 212.164062 90.1875 199.917969 88.796875 187.667969 88.742188 " fill-opacity="1" fill-rule="evenodd"></path></g><g clip-path="url(#f470438fed)"><path fill="#f1842f" d="M 150.917969 93.433594 C 130.023438 59.878906 103.976562 37.296875 75.292969 25.292969 C 54.054688 16.410156 53.769531 14.527344 46.871094 34.746094 C 29.527344 85.613281 40.488281 129.621094 52.488281 169.90625 C 46.175781 198.375 34.53125 224.1875 17.046875 247.078125 C 75.550781 241.890625 126.992188 262.488281 159.023438 305.015625 C 171.480469 321.558594 180.28125 328.785156 187.667969 329.703125 C 195.054688 328.785156 203.855469 321.558594 216.316406 305.015625 C 248.34375 262.488281 299.785156 241.890625 358.292969 247.078125 C 340.804688 224.1875 329.160156 198.378906 322.847656 169.90625 C 334.847656 129.621094 345.8125 85.613281 328.464844 34.75 C 321.566406 14.527344 321.28125 16.410156 300.042969 25.296875 C 271.359375 37.296875 245.3125 59.878906 224.417969 93.433594 C 200.855469 87.1875 174.480469 87.1875 150.917969 93.433594 " fill-opacity="1" fill-rule="evenodd"></path></g><path fill="#523f30" d="M 249.808594 217.632812 C 229.179688 220.003906 228.832031 248.9375 249.808594 249.019531 C 273.210938 249.117188 266.5 215.714844 249.808594 217.632812 M 125.523438 217.632812 C 146.15625 220.003906 146.5 248.9375 125.523438 249.019531 C 102.125 249.117188 108.835938 215.714844 125.523438 217.632812 Z M 165.402344 313.058594 C 174.601562 323.949219 181.609375 328.941406 187.667969 329.695312 C 193.722656 328.945312 200.730469 323.953125 209.929688 313.058594 C 215.875 306.019531 213.585938 301.515625 210.105469 299.234375 C 201.433594 293.550781 173.898438 293.550781 165.226562 299.234375 C 161.746094 301.515625 159.457031 306.019531 165.402344 313.058594 Z M 165.402344 313.058594 " fill-opacity="1" fill-rule="evenodd"></path><path fill="#bd5224" d="M 110.164062 118.585938 C 96.894531 128.457031 83.628906 142.429688 70.363281 159.738281 C 59.285156 130.035156 54.796875 102.03125 57.195312 75.976562 C 59.527344 50.625 60.660156 37.300781 81.871094 65.324219 C 93.40625 80.550781 102.515625 98.695312 110.164062 118.585938 M 265.167969 118.585938 C 278.4375 128.457031 291.703125 142.429688 304.96875 159.738281 C 316.046875 130.035156 320.535156 102.03125 318.136719 75.976562 C 315.804688 50.625 314.671875 37.300781 293.460938 65.324219 C 281.929688 80.550781 272.816406 98.695312 265.167969 118.585938 Z M 265.167969 118.585938 " fill-opacity="1" fill-rule="evenodd"></path></svg>